<svg xmlns="http://www.w3.org/2000/svg" aria-hidden="true" style="position:absolute;width:0;height:0;overflow:hidden">
  <defs>
    <symbol id="icon-icon-buy" viewBox="0 0 32 32">
      <path d="M23.274 17.6c1.2 0 2.256-.656 2.8-1.648l5.728-10.384c.592-1.056-.176-2.368-1.392-2.368H6.73L5.226 0H-.006v3.2h3.2l5.76 12.144-2.16 3.904C5.626 21.392 7.162 24 9.594 24h19.2v-3.2h-19.2l1.76-3.2h11.92zM8.25 6.4h19.44l-4.416 8H12.042l-3.792-8zm1.344 19.2c-1.76 0-3.184 1.44-3.184 3.2S7.834 32 9.594 32c1.76 0 3.2-1.44 3.2-3.2s-1.44-3.2-3.2-3.2zm16 0c-1.76 0-3.184 1.44-3.184 3.2s1.424 3.2 3.184 3.2c1.76 0 3.2-1.44 3.2-3.2s-1.44-3.2-3.2-3.2z"/>
    </symbol>
    <symbol id="icon-icon-facebook" viewBox="0 0 32 32">
      <path d="M16 2.667C8.636 2.667 2.667 8.636 2.667 16S8.636 29.333 16 29.333 29.333 23.364 29.333 16 23.364 2.667 16 2.667z" style="fill:var(--color1, #000)"/>
      <path fill="#fff" d="M17.805 19.534h3.451l.542-3.505h-3.993v-1.916c0-1.456.476-2.747 1.838-2.747h2.189V8.307c-.385-.052-1.198-.165-2.735-.165-3.209 0-5.091 1.695-5.091 5.556v2.332h-3.299v3.505h3.299v9.635c.653.097 1.315.164 1.995.164.614 0 1.213-.056 1.805-.136v-9.663z" style="fill:var(--color2, #fff)"/>
    </symbol>
    <symbol id="icon-icon-filters" viewBox="0 0 48 32">
      <path d="M18.667 32h10.667v-5.333H18.667V32zM0 0v5.333h48V0H0zm8 18.667h32v-5.333H8v5.333z"/>
    </symbol>
    <symbol id="icon-icon-instagram" viewBox="0 0 32 32">
      <path d="m22.678 27.993-13.333.013c-2.933.003-5.335-2.395-5.339-5.328L3.993 9.345C3.99 6.412 6.388 4.01 9.321 4.006l13.333-.013c2.933-.003 5.335 2.395 5.339 5.328l.013 13.333c.003 2.934-2.395 5.336-5.328 5.339z" style="fill:var(--color1, #000)"/>
      <path d="m22.678 27.993-13.333.013c-2.933.003-5.335-2.395-5.339-5.328L3.993 9.345C3.99 6.412 6.388 4.01 9.321 4.006l13.333-.013c2.933-.003 5.335 2.395 5.339 5.328l.013 13.333c.003 2.934-2.395 5.336-5.328 5.339z" style="fill:var(--color1, #000)"/>
      <path fill="#fff" d="M16 20.667c-2.573 0-4.667-2.093-4.667-4.667s2.094-4.667 4.667-4.667 4.667 2.093 4.667 4.667-2.094 4.667-4.667 4.667zm0-8c-1.838 0-3.333 1.495-3.333 3.333s1.495 3.333 3.333 3.333 3.333-1.495 3.333-3.333-1.495-3.333-3.333-3.333zM22 11a1 1 0 1 1-2 0 1 1 0 0 1 2 0z" style="fill:var(--color2, #fff)"/>
      <path fill="#fff" d="M20 24.667h-8A4.672 4.672 0 0 1 7.333 20v-8A4.673 4.673 0 0 1 12 7.333h8A4.672 4.672 0 0 1 24.667 12v8A4.673 4.673 0 0 1 20 24.667zm-8-16A3.337 3.337 0 0 0 8.667 12v8A3.337 3.337 0 0 0 12 23.333h8A3.337 3.337 0 0 0 23.333 20v-8A3.337 3.337 0 0 0 20 8.667h-8z" style="fill:var(--color2, #fff)"/>
    </symbol>
    <symbol id="icon-icon-like" viewBox="0 0 32 32">
      <path fill="#666" d="M23.2 1.32c-2.784 0-5.456 1.296-7.2 3.344-1.744-2.048-4.416-3.344-7.2-3.344-4.928 0-8.8 3.872-8.8 8.8 0 6.048 5.44 10.976 13.68 18.464L16 30.68l2.32-2.112C26.56 21.096 32 16.168 32 10.12c0-4.928-3.872-8.8-8.8-8.8zM16.16 26.2l-.16.16-.16-.16C8.224 19.304 3.2 14.744 3.2 10.12c0-3.2 2.4-5.6 5.6-5.6 2.464 0 4.864 1.584 5.712 3.776h2.992c.832-2.192 3.232-3.776 5.696-3.776 3.2 0 5.6 2.4 5.6 5.6 0 4.624-5.024 9.184-12.64 16.08z" style="fill:var(--color3, #666)"/>
    </symbol>
    <symbol id="icon-icon-mastercard" viewBox="0 0 32 32">
      <path fill="#3f51b5" d="M30 23.333A2.667 2.667 0 0 1 27.333 26H4.666a2.667 2.667 0 0 1-2.667-2.667V8.666a2.667 2.667 0 0 1 2.667-2.667h22.667A2.667 2.667 0 0 1 30 8.666v14.667z" style="fill:var(--color4, #3f51b5)"/>
      <path fill="#ffc107" d="M20 9.333a6.667 6.667 0 0 0 0 13.334 6.667 6.667 0 0 0 0-13.334z" style="fill:var(--color5, #ffc107)"/>
      <path fill="#ff3d00" d="M14.676 20a6.685 6.685 0 0 1-.784-1.333h3.55a6.62 6.62 0 0 0 .425-1.333h-4.399a6.652 6.652 0 0 1-.135-1.333H18c0-.457-.047-.903-.134-1.333h-4.399a6.62 6.62 0 0 1 .425-1.333h3.55a6.637 6.637 0 0 0-.784-1.333h-1.982a6.72 6.72 0 0 1 .987-1.063 6.637 6.637 0 0 0-4.33-1.603 6.667 6.667 0 0 0 0 13.334 6.647 6.647 0 0 0 5.324-2.667h-1.981z" style="fill:var(--color6, #ff3d00)"/>
    </symbol>
    <symbol id="icon-icon-notification" viewBox="0 0 29 32">
      <path d="M4.937 10.99a7.273 7.273 0 0 1 7.142-5.899h4.934a7.273 7.273 0 0 1 7.142 5.899l2.729 14.19a1.456 1.456 0 0 1-1.428 1.729H3.638A1.454 1.454 0 0 1 2.21 25.18l2.729-14.19zM12.079 8a4.364 4.364 0 0 0-4.285 3.54L5.398 24h18.296l-2.396-12.46A4.364 4.364 0 0 0 17.013 8h-4.934z"/>
      <path d="M29.091 26.909H0V24h29.091v2.909z"/>
      <path d="M8.727 25.455c0-.803.651-1.455 1.455-1.455h8.727c.803 0 1.455.651 1.455 1.455v1.455A4.364 4.364 0 0 1 16 31.274h-2.909a4.364 4.364 0 0 1-4.364-4.364v-1.455zm2.909 1.454c0 .803.651 1.455 1.455 1.455H16c.803 0 1.455-.651 1.455-1.455h-5.818zM10.182 6.545c0 .803.651 1.455 1.455 1.455h5.818c.803 0 1.455-.651 1.455-1.455V5.09a4.364 4.364 0 0 0-8.728 0v1.455zm2.909-1.454a1.455 1.455 0 0 1 2.91 0h-2.909z"/>
    </symbol>
    <symbol id="icon-icon-paypal" viewBox="0 0 32 32">
      <path fill="#1565c0" d="m12.467 9.178.003.001a.652.652 0 0 1 .637-.513h8.981c.011 0 .023-.005.034-.004-.191-3.186-2.864-4.663-5.222-4.663H7.919a.656.656 0 0 0-.637.518l-.003-.001-3.926 18.025.009.001c-.009.043-.026.083-.026.129 0 .369.298.661.667.661h5.381l3.084-14.155z" style="fill:var(--color7, #1565c0)"/>
      <path fill="#039be5" d="M22.122 8.663a7.086 7.086 0 0 1-.153 1.921c-.854 3.997-3.941 6.077-7.757 6.077h-2.875a.614.614 0 0 0-.587.36l-1.16 5.366-.203.953h-.004l-.842 3.864.009.001c-.009.043-.026.083-.026.129 0 .369.298.667.667.667h4.889l.009-.007a.656.656 0 0 0 .63-.525l.012-.01 1.208-5.611s.084-.535.647-.535h2.785c3.815 0 6.934-2.071 7.789-6.068.961-4.507-2.253-6.565-5.037-6.581z" style="fill:var(--color8, #039be5)"/>
      <path fill="#283593" d="M13.107 8.667a.65.65 0 0 0-.637.513l-.003-.001-1.717 7.843a.612.612 0 0 1 .587-.36h2.823c3.815 0 6.955-2.08 7.809-6.077.15-.702.188-1.337.153-1.921-.011-.001-.023.003-.033.003h-8.981z" style="fill:var(--color9, #283593)"/>
    </symbol>
    <symbol id="icon-icon-plus" viewBox="0 0 32 32">
      <path fill="#fff" d="M30.933 18.133h-12.8v12.8h-4.267v-12.8h-12.8v-4.267h12.8v-12.8h4.267v12.8h12.8v4.267z" style="fill:var(--color2, #fff)"/>
    </symbol>
    <symbol id="icon-icon-serch" viewBox="0 0 32 32">
      <path d="M22.676 20.009h-1.404l-.498-.48a11.507 11.507 0 0 0 2.791-7.52c0-6.382-5.173-11.556-11.556-11.556S.453 5.626.453 12.009c0 6.382 5.173 11.556 11.556 11.556 2.862 0 5.493-1.049 7.52-2.791l.48.498v1.404l8.889 8.871 2.649-2.649-8.871-8.889zm-10.667 0c-4.427 0-8-3.573-8-8s3.573-8 8-8 8 3.573 8 8-3.573 8-8 8z"/>
    </symbol>
    <symbol id="icon-icon-star" viewBox="0 0 35 32">
      <path d="m17.455 0 3.919 12.061h12.681l-10.259 7.454 3.919 12.061-10.259-7.454-10.26 7.454 3.919-12.061-10.26-7.454h12.681L17.455 0z"/>
    </symbol>
    <symbol id="icon-icon-twitterx" viewBox="0 0 32 32">
      <path d="M7.04 2.56a4.48 4.48 0 0 0-4.48 4.48v17.92a4.48 4.48 0 0 0 4.48 4.48h17.92a4.48 4.48 0 0 0 4.48-4.48V7.04a4.48 4.48 0 0 0-4.48-4.48H7.04zm1.335 5.76h5.08l3.607 5.126L21.44 8.32h1.6l-5.255 6.152 6.48 9.207h-5.079L15 17.732l-5.08 5.947h-1.6l5.957-6.974-5.902-8.386zm2.45 1.28 9.029 12.8h1.961L12.786 9.6h-1.961z"/>
    </symbol>
    <symbol id="icon-icon-visa" viewBox="0 0 32 32">
      <path fill="#1565c0" d="M30 23.333A2.667 2.667 0 0 1 27.333 26H4.666a2.667 2.667 0 0 1-2.667-2.667V8.666a2.667 2.667 0 0 1 2.667-2.667h22.667A2.667 2.667 0 0 1 30 8.666v14.667z" style="fill:var(--color7, #1565c0)"/>
      <path fill="#fff" d="m10.124 12.667-1.751 5.221s-.445-2.209-.489-2.486c-.997-2.274-2.467-2.147-2.467-2.147l1.733 6.744h2.107l2.914-7.332h-2.048zM11.793 20h1.914l1.157-7.333h-1.938zm13.546-7.333h-2.014L20.185 20h1.901l.392-1.047h2.397L25.079 20h1.742l-1.483-7.333zm-2.33 4.885 1.042-2.771.545 2.771h-1.587zm-5.43-2.748c0-.404.332-.705 1.284-.705.619 0 1.327.449 1.327.449l.311-1.539s-.905-.343-1.794-.343c-2.013 0-3.051.963-3.051 2.181 0 2.204 2.653 1.902 2.653 3.034 0 .194-.154.643-1.259.643-1.108 0-1.839-.406-1.839-.406l-.33 1.477s.709.404 2.078.404c1.373 0 3.277-1.027 3.277-2.501 0-1.774-2.657-1.902-2.657-2.694z" style="fill:var(--color2, #fff)"/>
      <path fill="#ffc107" d="m8.141 16.63-.644-3.165s-.291-.686-1.049-.686h-2.96s3.774 1.115 4.653 3.851z" style="fill:var(--color5, #ffc107)"/>
    </symbol>
  </defs>
</svg>
